<mxfile host="Electron" agent="Mozilla/5.0 (Windows NT 10.0; Win64; x64) AppleWebKit/537.36 (KHTML, like Gecko) draw.io/28.2.5 Chrome/138.0.7204.251 Electron/37.6.1 Safari/537.36" version="28.2.5">
  <diagram name="Página-1" id="2P502q081Z1hYUXMVxsY">
    <mxGraphModel dx="815" dy="508" grid="1" gridSize="10" guides="1" tooltips="1" connect="1" arrows="1" fold="1" page="1" pageScale="1" pageWidth="827" pageHeight="1169" math="0" shadow="0">
      <root>
        <mxCell id="0" />
        <mxCell id="1" parent="0" />
        <mxCell id="tTV2LNQv2tbNVMDfC5VS-60" value="" style="whiteSpace=wrap;html=1;aspect=fixed;" vertex="1" parent="1">
          <mxGeometry x="150" y="82.5" width="495" height="495" as="geometry" />
        </mxCell>
        <mxCell id="tTV2LNQv2tbNVMDfC5VS-1" value="" style="whiteSpace=wrap;html=1;aspect=fixed;" vertex="1" parent="1">
          <mxGeometry x="260" y="160" width="360" height="360" as="geometry" />
        </mxCell>
        <mxCell id="tTV2LNQv2tbNVMDfC5VS-27" style="edgeStyle=orthogonalEdgeStyle;rounded=0;orthogonalLoop=1;jettySize=auto;html=1;" edge="1" parent="1" source="tTV2LNQv2tbNVMDfC5VS-9" target="tTV2LNQv2tbNVMDfC5VS-14">
          <mxGeometry relative="1" as="geometry" />
        </mxCell>
        <mxCell id="tTV2LNQv2tbNVMDfC5VS-28" style="edgeStyle=orthogonalEdgeStyle;rounded=0;orthogonalLoop=1;jettySize=auto;html=1;entryX=0;entryY=0.5;entryDx=0;entryDy=0;" edge="1" parent="1" source="tTV2LNQv2tbNVMDfC5VS-9" target="tTV2LNQv2tbNVMDfC5VS-15">
          <mxGeometry relative="1" as="geometry" />
        </mxCell>
        <mxCell id="tTV2LNQv2tbNVMDfC5VS-9" value="Administrador" style="shape=umlActor;verticalLabelPosition=bottom;verticalAlign=top;html=1;" vertex="1" parent="1">
          <mxGeometry x="190" y="170" width="30" height="60" as="geometry" />
        </mxCell>
        <mxCell id="tTV2LNQv2tbNVMDfC5VS-30" style="edgeStyle=orthogonalEdgeStyle;rounded=0;orthogonalLoop=1;jettySize=auto;html=1;entryX=0;entryY=0;entryDx=0;entryDy=0;" edge="1" parent="1" source="tTV2LNQv2tbNVMDfC5VS-10" target="tTV2LNQv2tbNVMDfC5VS-16">
          <mxGeometry relative="1" as="geometry" />
        </mxCell>
        <mxCell id="tTV2LNQv2tbNVMDfC5VS-10" value="Atleta" style="shape=umlActor;verticalLabelPosition=bottom;verticalAlign=top;html=1;" vertex="1" parent="1">
          <mxGeometry x="190" y="260" width="30" height="60" as="geometry" />
        </mxCell>
        <mxCell id="tTV2LNQv2tbNVMDfC5VS-31" style="edgeStyle=orthogonalEdgeStyle;rounded=0;orthogonalLoop=1;jettySize=auto;html=1;" edge="1" parent="1" source="tTV2LNQv2tbNVMDfC5VS-11" target="tTV2LNQv2tbNVMDfC5VS-17">
          <mxGeometry relative="1" as="geometry" />
        </mxCell>
        <mxCell id="tTV2LNQv2tbNVMDfC5VS-11" value="Oficial de Resultados" style="shape=umlActor;verticalLabelPosition=bottom;verticalAlign=top;html=1;" vertex="1" parent="1">
          <mxGeometry x="190" y="350" width="30" height="60" as="geometry" />
        </mxCell>
        <mxCell id="tTV2LNQv2tbNVMDfC5VS-32" style="edgeStyle=orthogonalEdgeStyle;rounded=0;orthogonalLoop=1;jettySize=auto;html=1;entryX=0;entryY=0.5;entryDx=0;entryDy=0;" edge="1" parent="1" source="tTV2LNQv2tbNVMDfC5VS-12" target="tTV2LNQv2tbNVMDfC5VS-18">
          <mxGeometry relative="1" as="geometry" />
        </mxCell>
        <mxCell id="tTV2LNQv2tbNVMDfC5VS-12" value="Comitê Olimpico" style="shape=umlActor;verticalLabelPosition=bottom;verticalAlign=top;html=1;" vertex="1" parent="1">
          <mxGeometry x="190" y="440" width="30" height="60" as="geometry" />
        </mxCell>
        <mxCell id="tTV2LNQv2tbNVMDfC5VS-14" value="Cadastrar Competição" style="ellipse;whiteSpace=wrap;html=1;" vertex="1" parent="1">
          <mxGeometry x="280" y="180" width="120" height="40" as="geometry" />
        </mxCell>
        <mxCell id="tTV2LNQv2tbNVMDfC5VS-35" style="edgeStyle=orthogonalEdgeStyle;rounded=0;orthogonalLoop=1;jettySize=auto;html=1;entryX=0;entryY=0;entryDx=0;entryDy=0;" edge="1" parent="1" source="tTV2LNQv2tbNVMDfC5VS-15" target="tTV2LNQv2tbNVMDfC5VS-19">
          <mxGeometry relative="1" as="geometry">
            <Array as="points">
              <mxPoint x="445" y="260" />
              <mxPoint x="445" y="257" />
            </Array>
          </mxGeometry>
        </mxCell>
        <mxCell id="tTV2LNQv2tbNVMDfC5VS-36" value="&amp;lt;&amp;lt;include&amp;gt;&amp;gt;" style="edgeLabel;html=1;align=center;verticalAlign=middle;resizable=0;points=[];" vertex="1" connectable="0" parent="tTV2LNQv2tbNVMDfC5VS-35">
          <mxGeometry x="0.189" y="-2" relative="1" as="geometry">
            <mxPoint x="-27" y="-14" as="offset" />
          </mxGeometry>
        </mxCell>
        <mxCell id="tTV2LNQv2tbNVMDfC5VS-15" value="Alocar Local" style="ellipse;whiteSpace=wrap;html=1;" vertex="1" parent="1">
          <mxGeometry x="280" y="240" width="120" height="40" as="geometry" />
        </mxCell>
        <mxCell id="tTV2LNQv2tbNVMDfC5VS-33" style="edgeStyle=orthogonalEdgeStyle;rounded=0;orthogonalLoop=1;jettySize=auto;html=1;entryX=0;entryY=0;entryDx=0;entryDy=0;" edge="1" parent="1" source="tTV2LNQv2tbNVMDfC5VS-16" target="tTV2LNQv2tbNVMDfC5VS-20">
          <mxGeometry relative="1" as="geometry">
            <Array as="points">
              <mxPoint x="490" y="330" />
              <mxPoint x="490" y="339" />
            </Array>
          </mxGeometry>
        </mxCell>
        <mxCell id="tTV2LNQv2tbNVMDfC5VS-34" value="&amp;lt;&amp;lt;include&amp;gt;&amp;gt;" style="edgeLabel;html=1;align=center;verticalAlign=middle;resizable=0;points=[];" vertex="1" connectable="0" parent="tTV2LNQv2tbNVMDfC5VS-33">
          <mxGeometry x="0.3685" relative="1" as="geometry">
            <mxPoint x="-8" y="-10" as="offset" />
          </mxGeometry>
        </mxCell>
        <mxCell id="tTV2LNQv2tbNVMDfC5VS-16" value="Inscrever Atleta" style="ellipse;whiteSpace=wrap;html=1;" vertex="1" parent="1">
          <mxGeometry x="280" y="310" width="120" height="40" as="geometry" />
        </mxCell>
        <mxCell id="tTV2LNQv2tbNVMDfC5VS-17" value="Registrar Resultados" style="ellipse;whiteSpace=wrap;html=1;" vertex="1" parent="1">
          <mxGeometry x="280" y="380" width="120" height="40" as="geometry" />
        </mxCell>
        <mxCell id="tTV2LNQv2tbNVMDfC5VS-18" value="Gerar Relatório de Medalhas" style="ellipse;whiteSpace=wrap;html=1;" vertex="1" parent="1">
          <mxGeometry x="280" y="450" width="120" height="40" as="geometry" />
        </mxCell>
        <mxCell id="tTV2LNQv2tbNVMDfC5VS-19" value="Validar Conflito de Horário" style="ellipse;whiteSpace=wrap;html=1;" vertex="1" parent="1">
          <mxGeometry x="500" y="240" width="120" height="50" as="geometry" />
        </mxCell>
        <mxCell id="tTV2LNQv2tbNVMDfC5VS-20" value="Validar Elegibilidade do pais/modalidade" style="ellipse;whiteSpace=wrap;html=1;" vertex="1" parent="1">
          <mxGeometry x="470" y="330" width="140" height="60" as="geometry" />
        </mxCell>
      </root>
    </mxGraphModel>
  </diagram>
</mxfile>
